<svg xmlns="http://www.w3.org/2000/svg" viewBox="0 0 130 110" width="130" height="110">
  <!-- oreilles -->
  <ellipse cx="30" cy="52" rx="20" ry="24" fill="#8ea2c9" stroke="#1a1a1a" stroke-width="2.5"/>
  <ellipse cx="98" cy="52" rx="20" ry="24" fill="#8ea2c9" stroke="#1a1a1a" stroke-width="2.5"/>
  <ellipse cx="30" cy="52" rx="10" ry="14" fill="#c7d2e8"/>
  <ellipse cx="98" cy="52" rx="10" ry="14" fill="#c7d2e8"/>

  <!-- pattes -->
  <rect x="34" y="82" width="12" height="20" rx="4" fill="#7690bd" stroke="#1a1a1a" stroke-width="2"/>
  <rect x="52" y="86" width="12" height="18" rx="4" fill="#7690bd" stroke="#1a1a1a" stroke-width="2"/>
  <rect x="72" y="86" width="12" height="18" rx="4" fill="#7690bd" stroke="#1a1a1a" stroke-width="2"/>
  <rect x="90" y="82" width="12" height="20" rx="4" fill="#7690bd" stroke="#1a1a1a" stroke-width="2"/>

  <!-- corps -->
  <ellipse cx="66" cy="62" rx="48" ry="34" fill="#93a8cf" stroke="#1a1a1a" stroke-width="2.5"/>

  <!-- trompe -->
  <path d="M 24 58 C 10 60, 6 74, 14 84 C 18 90, 26 90, 28 82"
        fill="none" stroke="#1a1a1a" stroke-width="6" stroke-linecap="round"/>
  <path d="M 24 58 C 10 60, 6 74, 14 84 C 18 90, 26 90, 28 82"
        fill="none" stroke="#93a8cf" stroke-width="3" stroke-linecap="round"/>

  <!-- defense -->
  <path d="M 22 66 L 10 62 L 22 60 Z" fill="#f5f5f5" stroke="#1a1a1a" stroke-width="1.5"/>

  <!-- oeil -->
  <circle cx="40" cy="48" r="4.5" fill="#1a1a1a"/>
  <circle cx="41.5" cy="46.5" r="1.4" fill="#fff"/>

  <!-- texte php -->
  <text x="66" y="70" text-anchor="middle" font-family="Georgia, 'Times New Roman', serif"
        font-style="italic" font-weight="bold" font-size="30" fill="#ffffff"
        stroke="#1a1a1a" stroke-width="1.2" paint-order="stroke">php</text>
</svg>
